<mxfile host="app.diagrams.net" modified="2021-07-29T08:26:16.917Z" agent="5.0 (Windows NT 10.0; Win64; x64) AppleWebKit/537.36 (KHTML, like Gecko) Chrome/92.0.4515.107 Safari/537.36" etag="MgtvaNPe6C5SPOYsiAHS" version="14.9.2" type="github">
  <diagram id="kgpKYQtTHZ0yAKxKKP6v" name="Page-1">
    <mxGraphModel dx="1038" dy="517" grid="1" gridSize="10" guides="1" tooltips="1" connect="1" arrows="1" fold="1" page="1" pageScale="1" pageWidth="850" pageHeight="1100" math="0" shadow="0">
      <root>
        <mxCell id="0" />
        <mxCell id="1" parent="0" />
        <mxCell id="sIZXqxAl4OL05oFdRwKL-20" value="" style="edgeStyle=orthogonalEdgeStyle;rounded=0;orthogonalLoop=1;jettySize=auto;html=1;" parent="1" source="sIZXqxAl4OL05oFdRwKL-7" target="sIZXqxAl4OL05oFdRwKL-11" edge="1">
          <mxGeometry relative="1" as="geometry" />
        </mxCell>
        <mxCell id="sIZXqxAl4OL05oFdRwKL-7" value="1） 一条数据资产（A）" style="rounded=1;whiteSpace=wrap;html=1;align=left;fillColor=#e1d5e7;strokeColor=#9673a6;" parent="1" vertex="1">
          <mxGeometry x="52.5" y="150" width="135" height="60" as="geometry" />
        </mxCell>
        <mxCell id="sIZXqxAl4OL05oFdRwKL-30" value="" style="edgeStyle=orthogonalEdgeStyle;rounded=0;orthogonalLoop=1;jettySize=auto;html=1;" parent="1" source="sIZXqxAl4OL05oFdRwKL-11" target="sIZXqxAl4OL05oFdRwKL-21" edge="1">
          <mxGeometry relative="1" as="geometry">
            <mxPoint x="290" y="310" as="targetPoint" />
          </mxGeometry>
        </mxCell>
        <mxCell id="sIZXqxAl4OL05oFdRwKL-11" value="1）A所在业务API&lt;br&gt;2）A的可能的存储位置&lt;br&gt;3)&amp;nbsp; A的样本数据" style="rounded=1;whiteSpace=wrap;html=1;align=left;fillColor=#d5e8d4;strokeColor=#82b366;" parent="1" vertex="1">
          <mxGeometry x="50" y="260" width="140" height="60" as="geometry" />
        </mxCell>
        <mxCell id="sIZXqxAl4OL05oFdRwKL-12" value="调研" style="shape=umlActor;verticalLabelPosition=bottom;verticalAlign=top;html=1;outlineConnect=0;fillColor=#d5e8d4;strokeColor=#82b366;" parent="1" vertex="1">
          <mxGeometry y="255" width="30" height="60" as="geometry" />
        </mxCell>
        <mxCell id="sIZXqxAl4OL05oFdRwKL-14" value="客户" style="shape=umlActor;verticalLabelPosition=bottom;verticalAlign=top;html=1;outlineConnect=0;fillColor=#e1d5e7;strokeColor=#9673a6;" parent="1" vertex="1">
          <mxGeometry y="135" width="30" height="60" as="geometry" />
        </mxCell>
        <mxCell id="sIZXqxAl4OL05oFdRwKL-37" value="" style="edgeStyle=orthogonalEdgeStyle;rounded=0;orthogonalLoop=1;jettySize=auto;html=1;" parent="1" source="sIZXqxAl4OL05oFdRwKL-21" target="sIZXqxAl4OL05oFdRwKL-36" edge="1">
          <mxGeometry relative="1" as="geometry" />
        </mxCell>
        <mxCell id="sIZXqxAl4OL05oFdRwKL-21" value="&lt;div style=&quot;&quot;&gt;&lt;span&gt;1）编写识别模型&lt;/span&gt;&lt;/div&gt;&lt;div style=&quot;&quot;&gt;&lt;span&gt;2）完成工具识别验证&lt;/span&gt;&lt;/div&gt;" style="rounded=1;whiteSpace=wrap;html=1;align=left;fillColor=#fff2cc;strokeColor=#d6b656;" parent="1" vertex="1">
          <mxGeometry x="390" y="260" width="120" height="60" as="geometry" />
        </mxCell>
        <mxCell id="sIZXqxAl4OL05oFdRwKL-31" value="识别" style="shape=umlActor;verticalLabelPosition=bottom;verticalAlign=top;html=1;outlineConnect=0;fillColor=#fff2cc;strokeColor=#d6b656;" parent="1" vertex="1">
          <mxGeometry x="560" y="200" width="30" height="60" as="geometry" />
        </mxCell>
        <mxCell id="sIZXqxAl4OL05oFdRwKL-41" value="" style="edgeStyle=orthogonalEdgeStyle;rounded=0;orthogonalLoop=1;jettySize=auto;html=1;entryX=1;entryY=0.5;entryDx=0;entryDy=0;" parent="1" source="sIZXqxAl4OL05oFdRwKL-36" target="sIZXqxAl4OL05oFdRwKL-39" edge="1">
          <mxGeometry relative="1" as="geometry">
            <Array as="points">
              <mxPoint x="290" y="400" />
              <mxPoint x="290" y="400" />
            </Array>
          </mxGeometry>
        </mxCell>
        <mxCell id="sIZXqxAl4OL05oFdRwKL-36" value="1）全量扫描，获取数据具体位置和数量" style="rounded=1;whiteSpace=wrap;html=1;align=left;fillColor=#d80073;strokeColor=#A50040;fontColor=#ffffff;" parent="1" vertex="1">
          <mxGeometry x="690" y="380" width="120" height="60" as="geometry" />
        </mxCell>
        <mxCell id="sIZXqxAl4OL05oFdRwKL-38" value="识别工具" style="shape=umlActor;verticalLabelPosition=bottom;verticalAlign=top;html=1;outlineConnect=0;fillColor=#d80073;strokeColor=#A50040;fontColor=#ffffff;" parent="1" vertex="1">
          <mxGeometry x="800" y="255" width="30" height="60" as="geometry" />
        </mxCell>
        <mxCell id="sIZXqxAl4OL05oFdRwKL-46" value="" style="edgeStyle=orthogonalEdgeStyle;rounded=0;orthogonalLoop=1;jettySize=auto;html=1;entryX=0;entryY=0.5;entryDx=0;entryDy=0;" parent="1" source="sIZXqxAl4OL05oFdRwKL-39" target="sIZXqxAl4OL05oFdRwKL-42" edge="1">
          <mxGeometry relative="1" as="geometry">
            <Array as="points">
              <mxPoint x="120" y="510" />
            </Array>
          </mxGeometry>
        </mxCell>
        <mxCell id="sIZXqxAl4OL05oFdRwKL-39" value="1）梳理A的访问方式&lt;br&gt;2）A的分布和流转&lt;br&gt;3）A的使用范围、保护要求" style="rounded=1;whiteSpace=wrap;html=1;align=left;fillColor=#d5e8d4;strokeColor=#82b366;" parent="1" vertex="1">
          <mxGeometry x="60" y="370" width="120" height="60" as="geometry" />
        </mxCell>
        <mxCell id="sIZXqxAl4OL05oFdRwKL-40" value="调研" style="shape=umlActor;verticalLabelPosition=bottom;verticalAlign=top;html=1;outlineConnect=0;fillColor=#d5e8d4;strokeColor=#82b366;" parent="1" vertex="1">
          <mxGeometry y="365" width="30" height="60" as="geometry" />
        </mxCell>
        <mxCell id="sIZXqxAl4OL05oFdRwKL-50" value="" style="edgeStyle=orthogonalEdgeStyle;rounded=0;orthogonalLoop=1;jettySize=auto;html=1;" parent="1" source="sIZXqxAl4OL05oFdRwKL-42" target="sIZXqxAl4OL05oFdRwKL-48" edge="1">
          <mxGeometry relative="1" as="geometry">
            <Array as="points">
              <mxPoint x="465" y="640" />
            </Array>
          </mxGeometry>
        </mxCell>
        <mxCell id="sIZXqxAl4OL05oFdRwKL-42" value="1）分析A所属业务类别、管理属性、使用情况和重要程度&lt;br&gt;2） 编制A的分类、分级" style="rounded=1;whiteSpace=wrap;html=1;align=left;gradientColor=#d5739d;fillColor=#e6d0de;strokeColor=#996185;" parent="1" vertex="1">
          <mxGeometry x="400" y="480" width="130" height="60" as="geometry" />
        </mxCell>
        <mxCell id="sIZXqxAl4OL05oFdRwKL-47" value="方案" style="shape=umlActor;verticalLabelPosition=bottom;verticalAlign=top;html=1;outlineConnect=0;gradientColor=#d5739d;fillColor=#e6d0de;strokeColor=#996185;" parent="1" vertex="1">
          <mxGeometry x="560" y="430" width="30" height="60" as="geometry" />
        </mxCell>
        <mxCell id="sIZXqxAl4OL05oFdRwKL-54" value="" style="edgeStyle=orthogonalEdgeStyle;rounded=0;orthogonalLoop=1;jettySize=auto;html=1;entryX=0;entryY=0.5;entryDx=0;entryDy=0;" parent="1" source="sIZXqxAl4OL05oFdRwKL-48" target="sIZXqxAl4OL05oFdRwKL-51" edge="1">
          <mxGeometry relative="1" as="geometry">
            <mxPoint x="120" y="750" as="targetPoint" />
            <Array as="points">
              <mxPoint x="120" y="760" />
            </Array>
          </mxGeometry>
        </mxCell>
        <mxCell id="sIZXqxAl4OL05oFdRwKL-48" value="1）梳理A的现有安全措施&lt;br&gt;2）梳理A的全生命周期的安全要求" style="rounded=1;whiteSpace=wrap;html=1;align=left;fillColor=#d5e8d4;strokeColor=#82b366;" parent="1" vertex="1">
          <mxGeometry x="50" y="610" width="140" height="60" as="geometry" />
        </mxCell>
        <mxCell id="sIZXqxAl4OL05oFdRwKL-49" value="调研" style="shape=umlActor;verticalLabelPosition=bottom;verticalAlign=top;html=1;outlineConnect=0;fillColor=#d5e8d4;strokeColor=#82b366;" parent="1" vertex="1">
          <mxGeometry y="590" width="30" height="60" as="geometry" />
        </mxCell>
        <mxCell id="sIZXqxAl4OL05oFdRwKL-58" value="" style="edgeStyle=orthogonalEdgeStyle;rounded=0;orthogonalLoop=1;jettySize=auto;html=1;" parent="1" source="sIZXqxAl4OL05oFdRwKL-51" target="sIZXqxAl4OL05oFdRwKL-57" edge="1">
          <mxGeometry relative="1" as="geometry" />
        </mxCell>
        <mxCell id="sIZXqxAl4OL05oFdRwKL-51" value="1）分析A的安全差距&lt;br&gt;2）编制达标措施" style="rounded=1;whiteSpace=wrap;html=1;align=left;gradientColor=#d5739d;fillColor=#e6d0de;strokeColor=#996185;" parent="1" vertex="1">
          <mxGeometry x="400" y="730" width="125" height="60" as="geometry" />
        </mxCell>
        <mxCell id="sIZXqxAl4OL05oFdRwKL-52" value="方案" style="shape=umlActor;verticalLabelPosition=bottom;verticalAlign=top;html=1;outlineConnect=0;gradientColor=#d5739d;fillColor=#e6d0de;strokeColor=#996185;" parent="1" vertex="1">
          <mxGeometry x="530" y="650" width="30" height="60" as="geometry" />
        </mxCell>
        <mxCell id="sIZXqxAl4OL05oFdRwKL-62" value="" style="edgeStyle=orthogonalEdgeStyle;rounded=0;orthogonalLoop=1;jettySize=auto;html=1;" parent="1" source="sIZXqxAl4OL05oFdRwKL-57" target="sIZXqxAl4OL05oFdRwKL-61" edge="1">
          <mxGeometry relative="1" as="geometry" />
        </mxCell>
        <mxCell id="sIZXqxAl4OL05oFdRwKL-57" value="1）导入A的清单数据到UMP工具" style="rounded=1;whiteSpace=wrap;html=1;align=left;fillColor=#d80073;strokeColor=#A50040;fontColor=#ffffff;" parent="1" vertex="1">
          <mxGeometry x="670" y="730" width="140" height="60" as="geometry" />
        </mxCell>
        <mxCell id="sIZXqxAl4OL05oFdRwKL-59" value="分类分级工具" style="shape=umlActor;verticalLabelPosition=bottom;verticalAlign=top;html=1;outlineConnect=0;fillColor=#d80073;strokeColor=#A50040;fontColor=#ffffff;" parent="1" vertex="1">
          <mxGeometry x="790" y="620" width="30" height="60" as="geometry" />
        </mxCell>
        <mxCell id="sIZXqxAl4OL05oFdRwKL-64" value="" style="edgeStyle=orthogonalEdgeStyle;rounded=0;orthogonalLoop=1;jettySize=auto;html=1;" parent="1" source="sIZXqxAl4OL05oFdRwKL-61" target="sIZXqxAl4OL05oFdRwKL-63" edge="1">
          <mxGeometry relative="1" as="geometry" />
        </mxCell>
        <mxCell id="sIZXqxAl4OL05oFdRwKL-61" value="部署防护工具，验证安全措施" style="rounded=1;whiteSpace=wrap;html=1;align=left;fillColor=#d80073;strokeColor=#A50040;fontColor=#ffffff;" parent="1" vertex="1">
          <mxGeometry x="680" y="890" width="120" height="60" as="geometry" />
        </mxCell>
        <mxCell id="sIZXqxAl4OL05oFdRwKL-63" value="结束" style="ellipse;whiteSpace=wrap;html=1;align=center;fillColor=#bac8d3;strokeColor=#23445d;" parent="1" vertex="1">
          <mxGeometry x="680" y="980" width="120" height="40" as="geometry" />
        </mxCell>
        <mxCell id="sIZXqxAl4OL05oFdRwKL-65" value="防护工具" style="shape=umlActor;verticalLabelPosition=bottom;verticalAlign=top;html=1;outlineConnect=0;fillColor=#d80073;strokeColor=#A50040;fontColor=#ffffff;" parent="1" vertex="1">
          <mxGeometry x="790" y="800" width="30" height="60" as="geometry" />
        </mxCell>
        <mxCell id="N0XebVcsZzSTSIlgRitu-6" value="" style="edgeStyle=orthogonalEdgeStyle;rounded=0;orthogonalLoop=1;jettySize=auto;html=1;entryX=1;entryY=0.5;entryDx=0;entryDy=0;" edge="1" parent="1" source="N0XebVcsZzSTSIlgRitu-1" target="sIZXqxAl4OL05oFdRwKL-7">
          <mxGeometry relative="1" as="geometry">
            <mxPoint x="310" y="180" as="targetPoint" />
          </mxGeometry>
        </mxCell>
        <mxCell id="N0XebVcsZzSTSIlgRitu-1" value="1）数据资产客户培训&lt;br&gt;&lt;div style=&quot;&quot;&gt;&lt;span&gt;2）数据资产样例模板&lt;/span&gt;&lt;/div&gt;&lt;div style=&quot;&quot;&gt;&lt;span&gt;3）辅助客户梳理数据资产&lt;/span&gt;&lt;/div&gt;" style="rounded=1;whiteSpace=wrap;html=1;align=left;gradientColor=#d5739d;fillColor=#e6d0de;strokeColor=#996185;" vertex="1" parent="1">
          <mxGeometry x="390" y="150" width="150" height="60" as="geometry" />
        </mxCell>
        <mxCell id="N0XebVcsZzSTSIlgRitu-3" value="" style="edgeStyle=orthogonalEdgeStyle;rounded=0;orthogonalLoop=1;jettySize=auto;html=1;" edge="1" parent="1" source="N0XebVcsZzSTSIlgRitu-2" target="N0XebVcsZzSTSIlgRitu-1">
          <mxGeometry relative="1" as="geometry" />
        </mxCell>
        <mxCell id="N0XebVcsZzSTSIlgRitu-2" value="开始" style="ellipse;whiteSpace=wrap;html=1;fillColor=#bac8d3;strokeColor=#23445d;" vertex="1" parent="1">
          <mxGeometry x="405" y="40" width="120" height="40" as="geometry" />
        </mxCell>
        <mxCell id="N0XebVcsZzSTSIlgRitu-4" value="方案" style="shape=umlActor;verticalLabelPosition=bottom;verticalAlign=top;html=1;outlineConnect=0;gradientColor=#d5739d;fillColor=#e6d0de;strokeColor=#996185;" vertex="1" parent="1">
          <mxGeometry x="560" y="90" width="30" height="60" as="geometry" />
        </mxCell>
      </root>
    </mxGraphModel>
  </diagram>
</mxfile>
